<svg xmlns="http://www.w3.org/2000/svg" id="Capa_1" viewBox="0 0 90 81"><defs><style>.st1{fill:#fafcfe}</style></defs><path d="M54 0h36v34C82.88 12.97 74.18 7.21 54 0M35 0c-.5.49-2.11 1.56-3.03 1.81-13.44 3.66-24.8 12.68-29.5 25.84-.75 2.1-1.54 4-2.47 5.35V0zM90 47.74V81H54c.3-.27 1.85-1.2 2.61-1.38 13.55-3.28 25.73-12.18 30.67-25.43.92-2.46 1.79-4.63 2.72-6.45M35 81H0V48c.99 1.67 1.87 3.77 2.74 6.2 4.6 12.9 16.93 21.87 29.64 25.16.91.24 2.46 1.35 2.62 1.64" class="st1"/><path d="M54 0c20.18 7.21 28.88 12.97 36 34v13.74c-.94 1.82-1.8 3.99-2.72 6.45-4.94 13.24-17.12 22.15-30.67 25.43-.76.18-2.31 1.11-2.61 1.38H35c-.17-.29-1.72-1.4-2.62-1.64C19.67 76.06 7.34 67.1 2.74 54.2 1.87 51.77.99 49.67 0 48V33c.93-1.35 1.72-3.25 2.47-5.35 4.7-13.16 16.06-22.18 29.5-25.84C32.89 1.56 34.5.49 35 0zM9.19 42.35c6.57-1.5 14.08-2.31 19.91.2 1.11.48 3.1 3.5 2.2 4.04l-3.16 1.87c13.55 2.47 29.64 16.8 44.45 6.25 5.1-3.63 8.07-9.14 7.5-15.18-1.46-15.41-23.48-20.54-36.19-14.1l4.61 1.49c.83.27 1.48 2.8.96 3.57-3.59 5.29-20.48-4.32-32.49 2.01l3.07.92c.55.16 1.43 1.67 1.03 2.07-3.19 3.21-8.74 1.8-11.9 6.87Z" style="fill:#0378fe"/><path d="M9.19 42.35c3.16-5.07 8.71-3.66 11.9-6.87.4-.4-.48-1.91-1.03-2.07l-3.07-.92c12-6.32 28.89 3.29 32.49-2.01.52-.77-.13-3.3-.96-3.57l-4.61-1.49c12.7-6.44 34.72-1.31 36.19 14.1.57 6.04-2.4 11.55-7.5 15.18-14.82 10.54-30.9-3.79-44.45-6.25l3.16-1.87c.9-.53-1.09-3.56-2.2-4.04-5.82-2.51-13.34-1.69-19.91-.2Zm53.85 6.24c4.63-.07 7.62-3.78 7.58-7.1s-2.54-6.47-6.31-6.98c-6.13-.83-10.53 5.33-20.98 7.52 6.23 3.44 12.69 6.67 19.71 6.56" style="fill:#f8fbfe"/><path d="M63.04 48.59c-7.02.11-13.48-3.12-19.71-6.56 10.44-2.19 14.85-8.35 20.98-7.52 3.77.51 6.27 3.78 6.31 6.98s-2.95 7.03-7.58 7.1" style="fill:#087bfe"/></svg>